<svg data-name="placholder-img" xmlns="http://www.w3.org/2000/svg" width="350" height="250" viewBox="0 0 350 250">
  <g transform="translate(-85 -212)">
    <g transform="translate(85 212)" fill="#fff" stroke="#ededed" stroke-width="1">
      <rect width="350" height="250" rx="8" stroke="none"/>
      <rect x="0.5" y="0.5" width="349" height="249" rx="7.5" fill="none"/>
    </g>
    <circle cx="44.384" cy="44.384" r="44.384" transform="translate(129 279.683)" fill="#ededed"/>
    <g transform="translate(136.729 279.683)">
      <path d="M567.476,362.1H423.306a2.946,2.946,0,0,1-.539-.043l68.186-118.108a4.774,4.774,0,0,1,8.311,0l45.761,79.259L547.217,327Z" transform="translate(-422.767 -241.525)" fill="#c7c7c7"/>
      <path d="M706.646,382.542H581.95l24.164-35.1,1.739-2.528,31.487-45.74c2.064-3,7.03-3.185,9.457-.565a5.688,5.688,0,0,1,.453.565Z" transform="translate(-481.664 -261.968)" fill="#c7c7c7"/>
    </g>
    <path  d="M532.324,405.491A16.648,16.648,0,0,0,519.03,412.1a10.962,10.962,0,0,0-15.295,10.066H549a16.677,16.677,0,0,0-16.677-16.677Z" transform="translate(-246.579 -132.491)" fill="#e6e6e6"/>
    <g>
      <ellipse cx="45.38" cy="28.167" rx="45.38" ry="28.167" transform="matrix(0.741, -0.671, 0.671, 0.741, 285.717, 342.24)" fill="#e6e6e6"/>
      <path d="M615.017,428.966a32.7,32.7,0,0,1-2.957-16.72,40.18,40.18,0,0,1,4.911-16.163,53.853,53.853,0,0,1,10.093-12.944,77.917,77.917,0,0,1,13.947-10.445,155.633,155.633,0,0,1,16.418-8.354q1.048-.469,2.1-.932c.46-.2.062-.877-.395-.676a176.031,176.031,0,0,0-16.8,8.279A83,83,0,0,0,627.781,381.4a56.429,56.429,0,0,0-10.658,12.837,41.964,41.964,0,0,0-5.65,16.1,34.247,34.247,0,0,0,2.009,17.084q.4.984.86,1.941C614.561,429.814,615.236,429.418,615.017,428.966Z" transform="translate(-311.919 -29.371)" fill="#b7b7b7"/>
      <path d="M712.727,314.413a47.277,47.277,0,0,1,.954-12.727,48.06,48.06,0,0,1,4.292-12.027,47.263,47.263,0,0,1,3.781-6.121c.3-.408-.382-.8-.676-.395a48.034,48.034,0,0,0-6.113,11.375,48.846,48.846,0,0,0-2.9,12.591,47.233,47.233,0,0,0-.12,7.3c.031.5.813.5.782,0Z" transform="translate(-388.046 30.906)" fill="#b7b7b7"/>
    </g>
    <path d="M462.022,456.139a20.54,20.54,0,0,0-16.4,8.156,13.524,13.524,0,0,0-18.87,12.42H482.6a20.575,20.575,0,0,0-20.576-20.575Z" transform="translate(-211.921 -155.292)" fill="#ededed"/>
  </g>
</svg>