<?xml version="1.0" encoding="utf-8"?>
<!-- Generator: Adobe Adobe Illustrator 24.2.0, SVG Export Plug-In . SVG Version: 6.00 Build 0)  -->
<svg version="1.1" id="Layer_1" xmlns="http://www.w3.org/2000/svg" xmlns:xlink="http://www.w3.org/1999/xlink" x="0px" y="0px"
	 width="91.4px" height="31.5px" viewBox="0 0 91.4 31.5" style="enable-background:new 0 0 91.4 31.5;" xml:space="preserve">
<style type="text/css">
	.st0{fill:#FF7F00;}
</style>
<g>
	<g>
		<g>
			<path class="st0" d="M91,28c-0.1-0.1-0.3-0.2-0.5-0.2c-0.5,0.1-1,0.3-1.4,0.6c-0.5,0.3-1,0.6-1.6,0.7c-0.5,0-1-0.4-1.3-1.2
				c-0.3-0.9-0.4-1.8-0.4-2.6c0.1-1.6,0.3-3.2,0.8-4.7c0.1-0.2,0.1-0.3,0.1-0.5c0-0.2-0.2-0.4-0.5-0.6c-0.3-0.2-0.6-0.3-0.9-0.3
				c-0.5,0.1-0.9,0.3-1.3,0.6c-0.4,0.3-0.8,0.5-1.2,0.8c0.1-0.4,0.2-0.9,0.2-1.3c0-0.8-0.4-1.5-1.1-1.9c-0.4-0.3-0.9-0.4-1.5-0.4
				c-0.9-0.1-1.7,0.4-2.2,1.2c-0.2,0.4-0.3,0.8-0.3,1.3c-0.1,1.2,0.6,2.4,1.6,2.9l0.2,0.1c-1,1.9-2.4,3.6-4.2,5
				c-1.1,0.9-2.4,1.4-3.8,1.4c-0.8,0.1-1.6-0.4-1.8-1.2c-0.1-0.3-0.2-0.7-0.2-1c0-0.2,0-0.4,0-0.6c0.3,0.1,0.6,0.1,0.8,0.1
				c1.2,0,2.3-0.3,3.3-0.9c1.5-0.8,2.4-2.3,2.5-4c0-0.1,0-0.3,0-0.4c0.1-1.1-0.5-2.1-1.5-2.6c-0.6-0.3-1.2-0.5-1.9-0.5
				c-1.5,0-2.8,0.8-3.9,2.5c-0.9,1.4-1.5,3.1-1.7,4.8c-0.1,0.4-0.1,0.7-0.1,1.1l0,0c0,0.7,0.1,1.4,0.2,1.9c-0.1,0-0.1,0.1-0.2,0.1
				c-0.4,0.3-0.9,0.6-1.4,0.7c-0.1,0-0.2,0-0.3,0c-0.5,0-0.9-0.3-1.2-0.9c-0.2-0.4-0.3-0.9-0.3-1.3c0-0.8,0.5-4.9,1.5-12.6
				c0.4-3.3,0.7-5.2,0.7-5.5c0-0.8-0.2-1.2-0.7-1.4c-0.1,0-0.2,0-0.3,0c-0.7,0-1.1,0.6-1.3,1.8l-1.3,9c-0.5-0.2-1-0.3-1.6-0.3
				c-1.7,0.1-3.2,1-4,2.5c-0.9,1.4-1.5,3.1-1.7,4.8c0,0.4-0.1,0.7-0.1,1.1c0,0.6,0,1.2,0.1,1.7c-0.1,0.1-0.3,0.1-0.4,0.2
				c-0.4,0.3-0.9,0.6-1.3,0.7c-0.1,0-0.2,0-0.3,0c-0.5,0-0.9-0.4-1.2-1.2c0-0.1-0.1-0.2-0.1-0.3c-0.2-1.2-0.2-2.5-0.2-3.8
				c0-0.6,0-1.5,0-2.5c0-0.5,0-0.8,0-0.9c0-0.7-0.3-1.4-1-1.9c-0.4-0.3-0.9-0.5-1.4-0.5c-1.4,0-2.7,0.8-3.3,2c0,0-0.1,0.1-0.1,0.1
				c0-0.1,0-0.3,0-0.4c0-0.3,0-0.5,0-0.6c0-0.8-0.2-1.2-0.7-1.4c-0.1,0-0.2,0-0.3,0c-0.6,0-1,0.4-1.2,1.3c0,0.2-0.1,0.3-0.1,0.5
				l-1.1,8.1c0,0-0.1,0-0.1,0c-0.5,0.1-1,0.3-1.4,0.6c-0.4,0.3-0.9,0.6-1.3,0.7c-0.1,0-0.2,0-0.3,0c-0.5,0-0.9-0.3-1.2-0.9
				c-0.2-0.4-0.3-0.9-0.3-1.3c0-0.7,0.2-2.6,0.5-5.5c0.1-1,0.2-1.7,0.2-2c0-0.7-0.2-1.2-0.7-1.3c-0.1,0-0.3-0.1-0.4,0
				c-0.3,0-0.6,0.1-0.9,0.4c-0.5-0.3-1.1-0.4-1.8-0.4c-1.7,0.1-3.2,1-4,2.5c-0.9,1.4-1.5,3.1-1.7,4.8c0,0.4-0.1,0.7-0.1,1.1
				c0,2.2,0.5,3.7,1.6,4.5c0.5,0.3,1.1,0.5,1.7,0.5c1.2-0.1,2.3-0.6,3.1-1.5c0.2-0.2,0.3-0.3,0.5-0.5c0.5,1.2,1.6,2,2.9,2
				c1.1,0,2.1-0.4,3-1c0.1-0.1,0.2-0.1,0.3-0.2c0.1,0.4,0.3,0.8,0.7,1c0.1,0.1,0.2,0.1,0.4,0.1c0.5,0,0.9-0.3,1.1-0.8
				c0.2-0.3,0.3-0.7,0.3-1l0-0.5c0.3-1.6,0.9-3.2,1.6-4.7c0.9-2.1,1.7-3.3,2.3-3.5c0.1,0,0.1,0,0.2,0c0.2,0,0.4,0.6,0.4,1.7
				c0,0.3,0,0.8,0,1.3c0,0.5,0,0.8,0,1.1c0,3,0.6,5,1.7,5.9c0.6,0.4,1.3,0.7,2,0.6c1,0,2-0.4,2.9-1c0.1-0.1,0.2-0.1,0.2-0.2
				c0.2,0.3,0.4,0.5,0.7,0.7c0.5,0.3,1.1,0.5,1.7,0.5c1.2-0.1,2.2-0.5,3.1-1.4c0.2-0.2,0.4-0.4,0.5-0.5c0.5,1.2,1.7,2,3,2
				c1.1,0,2.1-0.4,3-1c0.1,0,0.1-0.1,0.2-0.2c0.6,0.6,1.4,1,2.5,1.1h0.2c2.7-0.1,5.2-1.3,7-3.2c1.5-1.5,2.7-3.2,3.6-5.1
				c0.6,0,1.2-0.2,1.8-0.5c-0.2,0.8-0.3,1.7-0.3,2.5c0,0.4,0,0.7,0,1c-0.1,1.2,0.1,2.4,0.6,3.6c0.4,1.1,1.4,1.9,2.5,2
				c0.1,0,0.3,0,0.4,0c1.1,0,2.1-0.4,3-1c0.6-0.4,1.1-1,1.2-1.8C91.4,28.4,91.2,28.1,91,28z M72.7,20.2
				C72.7,20.2,72.7,20.2,72.7,20.2c0.4-0.3,0.8-0.4,1.2-0.4c0.4,0,0.7,0.3,0.8,0.9c0,0.1,0,0.2,0,0.3c0,0.8-0.4,1.6-1.1,2
				c-0.7,0.5-1.5,0.8-2.3,0.8c-0.2,0-0.5,0-0.7-0.1C70.8,22.4,71.6,21.1,72.7,20.2z M36.8,21.1c-0.2,1.5-0.4,3-0.8,4.5
				c-0.1,0.6-0.3,1.2-0.5,1.7c-0.3,0.4-0.6,0.7-1,1c-0.3,0.3-0.7,0.5-1.2,0.5c-0.6,0-0.9-0.6-1-1.9v-0.2c0-1.4,0.3-2.8,0.9-4.1
				c0.7-1.5,1.5-2.4,2.5-2.7c0.2-0.1,0.4-0.1,0.6-0.1c0.2,0,0.5,0.1,0.7,0.2L36.8,21.1z M61.9,25.7c-0.1,0.5-0.3,1.1-0.5,1.5
				c-0.3,0.4-0.7,0.7-1.1,1c-0.3,0.3-0.7,0.4-1.1,0.5c-0.6,0-0.9-0.6-1-1.7c0-0.1,0-0.2,0-0.3c0-1.4,0.3-2.8,0.9-4.1
				c0.7-1.5,1.5-2.4,2.5-2.7c0.2-0.1,0.4-0.1,0.6-0.1c0.3,0,0.5,0.1,0.8,0.2C62.7,22,62.4,23.9,61.9,25.7z M80.9,20.7
				C80.4,20.5,80,20,80,19.5c0-0.3,0.2-0.5,0.5-0.6c0.1,0,0.1,0,0.2,0c0.3,0,0.5,0.2,0.6,0.4c0,0.1,0,0.1,0,0.2
				C81.2,19.9,81.1,20.3,80.9,20.7z"/>
			<path class="st0" d="M39.3,13.9c0.7,0.1,2.1,0.2,3.8,0.2c3.5,0,8.4-0.3,10.5-1.5c3.7-2,4-10.2,4-11.2c0-0.5-0.3-0.9-0.8-1
				c-0.3-0.1-7.9-1.2-11.9,1.4c-3.5,2.3-5.8,8.7-6.3,10.4c-2.9,0.9-5.8,1.6-8.8,2c0.1-0.9,0.1-1.6,0.1-2c0.1-1.6-0.5-3.1-1.6-4.3
				c-1-0.9-2.3-1.4-3.6-1.4c-1.1,0-2.2,0.4-3,1.2c-1,0.8-1.6,2-1.6,3.3c-0.1,1.7,0.7,3.4,2,4.5c1.3,1,2.9,1.5,4.6,1.5
				c-0.9,2.9-2.2,5.6-4,8.1c-1.9,2.5-4.1,3.7-6.3,3.7c-0.5,0-0.8-0.1-0.9-0.4c0.7-0.6,1.3-1.2,1.8-2c1.4-2,2.3-4.3,2.5-6.7
				c0-0.4,0-0.7,0-1.1c0.1-1.2-0.4-2.4-1.3-3.2c-0.7-0.6-1.5-0.9-2.4-0.9c-2.4,0-3.8,1.7-4.4,5.2c-0.2,1.1-0.2,2.3-0.2,3.4
				c0,1.5,0.2,3,0.6,4.5c-1,0.5-2.2,0.7-3.3,0.8c-1.4,0-2-1.3-2-4c0-0.6,0.3-3.3,0.9-8.1c0.2-1.9,0.6-4.6,1-8c0-0.4-0.3-0.9-0.7-1.1
				C7.6,6.9,7.4,6.9,7.2,6.9c-0.5,0-2.5,1.2-6.1,3.6c-0.2,0.1-0.3,0.2-0.4,0.2C0.3,11,0,11.4,0,11.9c0,0.4,0.2,0.9,0.6,1.1
				c0.2,0.1,0.4,0.2,0.7,0.2c0.6-0.2,1.3-0.5,1.8-0.9c0.6-0.4,1.4-0.9,2.5-1.5C5.4,12,5.1,14.1,4.7,17c-0.5,2.4-0.7,4.9-0.8,7.4
				c0,2.8,0.6,4.7,1.8,5.8c0.7,0.6,1.5,0.9,2.4,0.8c1.7,0,3.3-0.4,4.8-1.2c0.6,0.7,1.5,1.2,2.5,1.3c0.1,0,0.2,0,0.3,0
				c3.6,0,6.7-1.8,9.3-5.3c1.9-2.7,3.3-5.8,4.1-9.1c0.9-0.1,5.2-1,10-2.9C39.2,13.9,39.3,13.9,39.3,13.9z M14.1,25.8
				c-0.2-0.9-0.3-1.7-0.3-2.6c0-1.5,0.2-2.9,0.6-4.3c0.4-1,0.8-1.5,1.4-1.5c0.7,0,1.1,0.4,1.2,1.3c0,0.1,0,0.2,0,0.3
				c0,2.1-0.6,4.1-1.8,5.8C14.8,25.1,14.5,25.5,14.1,25.8z M27.1,14.5c-2.2,0-3.6-0.6-4.2-1.7c-0.2-0.4-0.4-0.9-0.4-1.4
				c0-0.8,0.4-1.5,1.1-1.9c0.4-0.3,0.9-0.4,1.4-0.4c1,0,1.9,0.6,2.2,1.6c0.1,0.4,0.2,0.9,0.2,1.3C27.3,12.9,27.2,13.7,27.1,14.5z
				 M45.9,3.5c2.6-1.7,7.6-1.4,9.6-1.2c-0.2,3.1-1.1,7.6-2.9,8.6c-1.7,0.9-6.1,1.2-9.4,1.2c2.4-1.2,4.8-2.8,6.7-4.6
				c1.3-1.3,2-2.2,1.6-2.4C51.4,5,50.9,6.4,44.2,10c-1.1,0.5-2.2,0.9-3.3,1.3C41.8,9,43.6,5,45.9,3.5z"/>
		</g>
	</g>
</g>
</svg>
