<svg  data-name="wander_logo" xmlns="http://www.w3.org/2000/svg" width="90" height="30" viewBox="0 0 90 30">
  <g id="wander_logo" transform="translate(0 -0.084)">
    <g id="Group_207" data-name="Group 207" transform="translate(0 0.084)">
      <g id="Group_206" data-name="Group 206">
        <path id="Path_65" data-name="Path 65" d="M89.1,28.4a4.594,4.594,0,0,1-1.6.7c-.5,0-1-.4-1.3-1.2a8.239,8.239,0,0,1-.4-2.6,18.506,18.506,0,0,1,.8-4.7.9.9,0,0,0,.1-.5c0-.2-.2-.4-.5-.6a1.613,1.613,0,0,0-.9-.3,3.1,3.1,0,0,0-1.3.6c-.4.3-.8.5-1.2.8a5.853,5.853,0,0,0,.2-1.3,2.144,2.144,0,0,0-1.1-1.9,2.41,2.41,0,0,0-1.5-.4,2.315,2.315,0,0,0-2.2,1.2,2.768,2.768,0,0,0-.3,1.3,3.053,3.053,0,0,0,1.6,2.9l.2.1a15.387,15.387,0,0,1-4.2,5,5.943,5.943,0,0,1-3.8,1.4,1.645,1.645,0,0,1-1.8-1.2,3.553,3.553,0,0,1-.2-1v-.6a2.485,2.485,0,0,0,.8.1,6.294,6.294,0,0,0,3.3-.9,4.769,4.769,0,0,0,2.5-4v-.4a2.632,2.632,0,0,0-1.5-2.6,4.136,4.136,0,0,0-1.9-.5A4.619,4.619,0,0,0,69,20.3a11.515,11.515,0,0,0-1.7,4.8,4.1,4.1,0,0,0-.1,1.1h0a10.074,10.074,0,0,0,.2,1.9c-.1,0-.1.1-.2.1a3.694,3.694,0,0,1-1.4.7h-.3a1.352,1.352,0,0,1-1.2-.9,3.079,3.079,0,0,1-.3-1.3c0-.8.5-4.9,1.5-12.6.4-3.3.7-5.2.7-5.5,0-.8-.2-1.2-.7-1.4h-.3c-.7,0-1.1.6-1.3,1.8l-1.3,9a4.146,4.146,0,0,0-1.6-.3,4.769,4.769,0,0,0-4,2.5A11.515,11.515,0,0,0,55.3,25c0,.4-.1.7-.1,1.1a9.15,9.15,0,0,0,.1,1.7c-.1.1-.3.1-.4.2a4.15,4.15,0,0,1-1.3.7h-.3q-.75,0-1.2-1.2c0-.1-.1-.2-.1-.3a23.578,23.578,0,0,1-.2-3.8V20a2.285,2.285,0,0,0-1-1.9,2.389,2.389,0,0,0-1.4-.5,3.714,3.714,0,0,0-3.3,2l-.1.1v-1c0-.8-.2-1.2-.7-1.4H45c-.6,0-1,.4-1.2,1.3,0,.2-.1.3-.1.5l-1.1,8.1h-.1a3.506,3.506,0,0,0-1.4.6,4.15,4.15,0,0,1-1.3.7h-.3a1.352,1.352,0,0,1-1.2-.9,3.079,3.079,0,0,1-.3-1.3c0-.7.2-2.6.5-5.5.1-1,.2-1.7.2-2,0-.7-.2-1.2-.7-1.3-.1,0-.3-.1-.4,0a1.222,1.222,0,0,0-.9.4,3.425,3.425,0,0,0-1.8-.4,4.769,4.769,0,0,0-4,2.5,11.515,11.515,0,0,0-1.7,4.8c0,.4-.1.7-.1,1.1,0,2.2.5,3.7,1.6,4.5a3.371,3.371,0,0,0,1.7.5,4.588,4.588,0,0,0,3.1-1.5l.5-.5a3.139,3.139,0,0,0,2.9,2,5.389,5.389,0,0,0,3-1c.1-.1.2-.1.3-.2a1.445,1.445,0,0,0,.7,1c.1.1.2.1.4.1a1.17,1.17,0,0,0,1.1-.8,1.929,1.929,0,0,0,.3-1v-.5a20.074,20.074,0,0,1,1.6-4.7c.9-2.1,1.7-3.3,2.3-3.5h.2c.2,0,.4.6.4,1.7v2.4c0,3,.6,5,1.7,5.9a2.957,2.957,0,0,0,2,.6,5.339,5.339,0,0,0,2.9-1c.1-.1.2-.1.2-.2a2.336,2.336,0,0,0,.7.7,3.371,3.371,0,0,0,1.7.5,4.683,4.683,0,0,0,3.1-1.4L62,29a3.275,3.275,0,0,0,3,2,5.389,5.389,0,0,0,3-1c.1,0,.1-.1.2-.2a3.879,3.879,0,0,0,2.5,1.1h.2a10.2,10.2,0,0,0,7-3.2,18.155,18.155,0,0,0,3.6-5.1,4.075,4.075,0,0,0,1.8-.5,10.679,10.679,0,0,0-.3,2.5v1a7.61,7.61,0,0,0,.6,3.6,3.032,3.032,0,0,0,2.5,2h.4a5.389,5.389,0,0,0,3-1,2.564,2.564,0,0,0,1.2-1.8C90.79,27.681,89.934,27.9,89.1,28.4ZM72.7,20.2h0a1.922,1.922,0,0,1,1.2-.4c.4,0,.7.3.8.9V21a2.305,2.305,0,0,1-1.1,2,4.006,4.006,0,0,1-2.3.8,1.7,1.7,0,0,1-.7-.1A5.862,5.862,0,0,1,72.7,20.2Zm-35.9.9a35.4,35.4,0,0,1-.8,4.5,8.447,8.447,0,0,1-.5,1.7,4.74,4.74,0,0,1-1,1,1.656,1.656,0,0,1-1.2.5c-.6,0-.9-.6-1-1.9v-.2a9.782,9.782,0,0,1,.9-4.1,4.477,4.477,0,0,1,2.5-2.7,1.268,1.268,0,0,1,.6-.1,1.854,1.854,0,0,1,.7.2Zm25.1,4.6a6.606,6.606,0,0,1-.5,1.5,5.241,5.241,0,0,1-1.1,1,2.22,2.22,0,0,1-1.1.5c-.6,0-.9-.6-1-1.7v-.3a9.782,9.782,0,0,1,.9-4.1,4.477,4.477,0,0,1,2.5-2.7,1.268,1.268,0,0,1,.6-.1,2.353,2.353,0,0,1,.8.2A47.974,47.974,0,0,1,61.9,25.7Zm19-5a1.4,1.4,0,0,1-.9-1.2.634.634,0,0,1,.5-.6h.2a.675.675,0,0,1,.6.4v.2A5.638,5.638,0,0,1,80.9,20.7Z" transform="translate(-0.707 -1.2)" fill="#ff7f00"/>
        <path id="Path_66" data-name="Path 66" d="M39.3,13.4a31.607,31.607,0,0,0,3.8.193c3.5,0,8.4-.289,10.5-1.446,3.7-1.928,4-9.833,4-10.8a.947.947,0,0,0-.8-.964c-.3-.1-7.9-1.157-11.9,1.35-3.5,2.217-5.8,8.387-6.3,10.026a55.05,55.05,0,0,1-8.8,1.928,16.011,16.011,0,0,0,.1-1.928,5.465,5.465,0,0,0-1.6-4.145,5.541,5.541,0,0,0-3.6-1.35,4.32,4.32,0,0,0-3,1.157,4.016,4.016,0,0,0-1.6,3.181,5.309,5.309,0,0,0,2,4.338,7.649,7.649,0,0,0,4.6,1.446,26.449,26.449,0,0,1-4,7.809c-1.9,2.41-4.1,3.567-6.3,3.567-.5,0-.8-.1-.9-.386a8.4,8.4,0,0,0,1.8-1.928,12.942,12.942,0,0,0,2.5-6.459v-1.06a3.685,3.685,0,0,0-3.7-3.953c-2.4,0-3.8,1.639-4.4,5.013a18.043,18.043,0,0,0-.2,3.278,16.208,16.208,0,0,0,.6,4.338,9.687,9.687,0,0,1-3.3.771c-1.4,0-2-1.253-2-3.856q0-.868.9-7.809c.2-1.832.6-4.435,1-7.712A1.3,1.3,0,0,0,8,6.944a1.15,1.15,0,0,0-.8-.289c-.5,0-2.5,1.157-6.1,3.47-.2.1-.3.193-.4.193A1.461,1.461,0,0,0,0,11.475a1.2,1.2,0,0,0,.6,1.06,1.485,1.485,0,0,0,.7.193,6.171,6.171,0,0,0,1.8-.868c.6-.386,1.4-.868,2.5-1.446-.2,1.157-.5,3.181-.9,5.977a42.15,42.15,0,0,0-.8,7.134c0,2.7.6,4.531,1.8,5.591a3.142,3.142,0,0,0,2.4.771,10.35,10.35,0,0,0,4.8-1.157,3.872,3.872,0,0,0,2.5,1.253h.3c3.6,0,6.7-1.735,9.3-5.109A25.41,25.41,0,0,0,29.1,16.1a52.617,52.617,0,0,0,10-2.8A.315.315,0,0,0,39.3,13.4ZM14.1,24.875a10.733,10.733,0,0,1-.3-2.506,14.35,14.35,0,0,1,.6-4.145c.4-.964.8-1.446,1.4-1.446.7,0,1.1.386,1.2,1.253v.289a9.361,9.361,0,0,1-1.8,5.591C14.8,24.2,14.5,24.586,14.1,24.875Zm13-10.894c-2.2,0-3.6-.578-4.2-1.639a3.054,3.054,0,0,1-.4-1.35,2.055,2.055,0,0,1,1.1-1.832A2.359,2.359,0,0,1,25,8.776a2.243,2.243,0,0,1,2.2,1.542,5.455,5.455,0,0,1,.2,1.253C27.3,12.439,27.2,13.21,27.1,13.981Zm18.8-10.6c2.6-1.639,7.6-1.35,9.6-1.157-.2,2.988-1.1,7.327-2.9,8.291-1.7.868-6.1,1.157-9.4,1.157a28.517,28.517,0,0,0,6.7-4.435c1.3-1.253,2-2.121,1.6-2.314-.1-.1-.6,1.253-7.3,4.724-1.1.482-2.2.868-3.3,1.253C41.8,8.679,43.6,4.823,45.9,3.377Z" transform="translate(0 -0.084)" fill="#ff7f00"/>
      </g>
    </g>
  </g>
</svg>
