<svg id="wander_logo" xmlns="http://www.w3.org/2000/svg" width="80" height="26" viewBox="0 0 80 26" fill="#e84200">
    <g>
      <path d="M82.433,25.573a4.137,4.137,0,0,1-1.422.607c-.444,0-.889-.347-1.156-1.04a6.977,6.977,0,0,1-.356-2.253,15.676,15.676,0,0,1,.711-4.073.765.765,0,0,0,.089-.433c0-.173-.178-.347-.444-.52a1.459,1.459,0,0,0-.8-.26,2.788,2.788,0,0,0-1.156.52c-.356.26-.711.433-1.067.693a4.955,4.955,0,0,0,.178-1.127,1.85,1.85,0,0,0-.978-1.647,2.183,2.183,0,0,0-1.333-.347,2.071,2.071,0,0,0-1.956,1.04,2.35,2.35,0,0,0-.267,1.127A2.633,2.633,0,0,0,73.9,20.373l.178.087a13.423,13.423,0,0,1-3.733,4.333,5.364,5.364,0,0,1-3.378,1.213,1.462,1.462,0,0,1-1.6-1.04,3.012,3.012,0,0,1-.178-.867v-.52a2.263,2.263,0,0,0,.711.087,5.7,5.7,0,0,0,2.933-.78,4.124,4.124,0,0,0,2.222-3.467v-.347a2.273,2.273,0,0,0-1.333-2.253,3.75,3.75,0,0,0-1.689-.433,4.118,4.118,0,0,0-3.467,2.167,9.819,9.819,0,0,0-1.511,4.16,3.469,3.469,0,0,0-.089.953h0a8.522,8.522,0,0,0,.178,1.647c-.089,0-.089.087-.178.087a3.317,3.317,0,0,1-1.244.607h-.267a1.2,1.2,0,0,1-1.067-.78,2.613,2.613,0,0,1-.267-1.127c0-.693.444-4.247,1.333-10.92.356-2.86.622-4.507.622-4.767,0-.693-.178-1.04-.622-1.213h-.267c-.622,0-.978.52-1.156,1.56l-1.156,7.8a3.768,3.768,0,0,0-1.422-.26A4.251,4.251,0,0,0,53.9,18.467a9.82,9.82,0,0,0-1.511,4.16c0,.347-.089.607-.089.953a7.734,7.734,0,0,0,.089,1.473c-.089.087-.267.087-.356.173a3.721,3.721,0,0,1-1.156.607h-.267q-.667,0-1.067-1.04c0-.087-.089-.173-.089-.26a19.93,19.93,0,0,1-.178-3.293V18.293a1.966,1.966,0,0,0-.889-1.647,2.158,2.158,0,0,0-1.244-.433,3.313,3.313,0,0,0-2.933,1.733l-.089.087v-.867c0-.693-.178-1.04-.622-1.213h-.267c-.533,0-.889.347-1.067,1.127,0,.173-.089.26-.089.433l-.978,7.02h-.089a3.158,3.158,0,0,0-1.244.52,3.721,3.721,0,0,1-1.156.607h-.267a1.2,1.2,0,0,1-1.067-.78,2.614,2.614,0,0,1-.267-1.127c0-.607.178-2.253.444-4.767.089-.867.178-1.473.178-1.733,0-.607-.178-1.04-.622-1.127-.089,0-.267-.087-.356,0a1.1,1.1,0,0,0-.8.347,3.108,3.108,0,0,0-1.6-.347A4.251,4.251,0,0,0,30.7,18.293a9.82,9.82,0,0,0-1.511,4.16c0,.347-.089.607-.089.953,0,1.907.444,3.207,1.422,3.9a3.053,3.053,0,0,0,1.511.433,4.119,4.119,0,0,0,2.756-1.3l.444-.433a2.789,2.789,0,0,0,2.578,1.733,4.872,4.872,0,0,0,2.667-.867c.089-.087.178-.087.267-.173a1.254,1.254,0,0,0,.622.867c.089.087.178.087.356.087a1.038,1.038,0,0,0,.978-.693,1.642,1.642,0,0,0,.267-.867V25.66a17.1,17.1,0,0,1,1.422-4.073c.8-1.82,1.511-2.86,2.044-3.033h.178c.178,0,.356.52.356,1.473v2.08c0,2.6.533,4.333,1.511,5.113a2.676,2.676,0,0,0,1.778.52,4.825,4.825,0,0,0,2.578-.867c.089-.087.178-.087.178-.173a2.052,2.052,0,0,0,.622.607,3.053,3.053,0,0,0,1.511.433A4.211,4.211,0,0,0,57.9,26.527l.444-.433a2.913,2.913,0,0,0,2.667,1.733,4.872,4.872,0,0,0,2.667-.867c.089,0,.089-.087.178-.173a3.489,3.489,0,0,0,2.222.953h.178a9.164,9.164,0,0,0,6.222-2.773,15.742,15.742,0,0,0,3.2-4.42,3.694,3.694,0,0,0,1.6-.433,9.035,9.035,0,0,0-.267,2.167v.867a6.448,6.448,0,0,0,.533,3.12A2.683,2.683,0,0,0,79.767,28h.356a4.872,4.872,0,0,0,2.667-.867,2.221,2.221,0,0,0,1.067-1.56C83.935,24.95,83.175,25.14,82.433,25.573ZM67.856,18.467h0a1.738,1.738,0,0,1,1.067-.347c.356,0,.622.26.711.78v.26a1.987,1.987,0,0,1-.978,1.733,3.62,3.62,0,0,1-2.044.693,1.548,1.548,0,0,1-.622-.087A5.058,5.058,0,0,1,67.856,18.467Zm-31.911.78a29.986,29.986,0,0,1-.711,3.9,7.183,7.183,0,0,1-.444,1.473,4.163,4.163,0,0,1-.889.867,1.491,1.491,0,0,1-1.067.433c-.533,0-.8-.52-.889-1.647V24.1a8.3,8.3,0,0,1,.8-3.553,3.926,3.926,0,0,1,2.222-2.34,1.153,1.153,0,0,1,.533-.087,1.68,1.68,0,0,1,.622.173Zm22.311,3.987a5.626,5.626,0,0,1-.444,1.3,4.619,4.619,0,0,1-.978.867,2,2,0,0,1-.978.433c-.533,0-.8-.52-.889-1.473V24.1a8.3,8.3,0,0,1,.8-3.553,3.926,3.926,0,0,1,2.222-2.34,1.153,1.153,0,0,1,.533-.087,2.136,2.136,0,0,1,.711.173A40.655,40.655,0,0,1,58.256,23.233ZM75.144,18.9a1.218,1.218,0,0,1-.8-1.04.553.553,0,0,1,.444-.52h.178a.6.6,0,0,1,.533.347v.173A4.8,4.8,0,0,1,75.144,18.9Z" transform="translate(-3.861 -2)" />
      <path d="M34.933,11.627a28.808,28.808,0,0,0,3.378.167c3.111,0,7.467-.251,9.333-1.253C50.933,8.87,51.2,2.019,51.2,1.184a.827.827,0,0,0-.711-.835c-.267-.084-7.022-1-10.578,1.17-3.111,1.922-5.156,7.269-5.6,8.689a50.013,50.013,0,0,1-7.822,1.671,13.532,13.532,0,0,0,.089-1.671,4.672,4.672,0,0,0-1.422-3.593,5,5,0,0,0-3.2-1.17,3.9,3.9,0,0,0-2.667,1A3.452,3.452,0,0,0,17.867,9.2a4.555,4.555,0,0,0,1.778,3.76,6.919,6.919,0,0,0,4.089,1.253,22.717,22.717,0,0,1-3.556,6.767,7.283,7.283,0,0,1-5.6,3.091c-.444,0-.711-.084-.8-.334a7.358,7.358,0,0,0,1.6-1.671,11.055,11.055,0,0,0,2.222-5.6v-.919a3.159,3.159,0,0,0-1.156-2.674,3.306,3.306,0,0,0-2.133-.752c-2.133,0-3.378,1.42-3.911,4.345a15.252,15.252,0,0,0-.178,2.841,13.719,13.719,0,0,0,.533,3.76,8.8,8.8,0,0,1-2.933.668c-1.244,0-1.778-1.086-1.778-3.342q0-.752.8-6.767c.178-1.587.533-3.843.889-6.684a1.129,1.129,0,0,0-.622-.919A1.04,1.04,0,0,0,6.4,5.779c-.444,0-2.222,1-5.422,3.008C.8,8.87.711,8.954.622,8.954a1.262,1.262,0,0,0-.622,1,1.034,1.034,0,0,0,.533.919,1.346,1.346,0,0,0,.622.167,5.547,5.547,0,0,0,1.6-.752C3.289,9.956,4,9.538,4.978,9.037c-.178,1-.444,2.757-.8,5.18A35.655,35.655,0,0,0,3.467,20.4c0,2.339.533,3.927,1.6,4.846a2.84,2.84,0,0,0,2.133.668,9.392,9.392,0,0,0,4.267-1A3.473,3.473,0,0,0,13.689,26h.267c3.2,0,5.956-1.5,8.267-4.428a21.779,21.779,0,0,0,3.644-7.6,47.725,47.725,0,0,0,8.889-2.423A.284.284,0,0,0,34.933,11.627Zm-22.4,9.942a9.081,9.081,0,0,1-.267-2.172A12.149,12.149,0,0,1,12.8,15.8c.356-.835.711-1.253,1.244-1.253.622,0,.978.334,1.067,1.086v.251a7.976,7.976,0,0,1-1.6,4.846C13.156,20.985,12.889,21.319,12.533,21.569Zm11.556-9.441c-1.956,0-3.2-.5-3.733-1.42A2.6,2.6,0,0,1,20,9.538a1.775,1.775,0,0,1,.978-1.587,2.137,2.137,0,0,1,1.244-.334,1.992,1.992,0,0,1,1.956,1.337,4.619,4.619,0,0,1,.178,1.086C24.267,10.792,24.178,11.46,24.089,12.128ZM40.8,2.938c2.311-1.42,6.756-1.17,8.533-1-.178,2.59-.978,6.35-2.578,7.185-1.511.752-5.422,1-8.356,1A25.41,25.41,0,0,0,44.356,6.28c1.156-1.086,1.778-1.838,1.422-2.005-.089-.084-.533,1.086-6.489,4.094-.978.418-1.956.752-2.933,1.086C37.156,7.533,38.756,4.191,40.8,2.938Z" />
  </g>
</svg>